<svg width="69" height="69" viewBox="0 0 69 69" fill="none" xmlns="http://www.w3.org/2000/svg">
<path d="M64.4527 66.8438H4.5575C3.2368 66.8438 2.16406 65.771 2.16406 64.4503V4.54969C2.16406 3.22898 3.2368 2.15625 4.5575 2.15625H64.4527C65.7734 2.15625 66.8462 3.22898 66.8462 4.54969V64.4503C66.8462 65.771 65.7734 66.8438 64.4527 66.8438Z" fill="#FFC700"/>
<path d="M21.3738 9.65289H3.18586C2.91422 9.65289 2.65371 9.54498 2.46163 9.3529C2.26955 9.16083 2.16164 8.90031 2.16164 8.62867V3.92266C2.16164 3.35664 2.61984 2.89844 3.18586 2.89844H21.3738C21.9398 2.89844 22.398 3.35664 22.398 3.92266V8.62328C22.398 9.1893 21.9398 9.65289 21.3738 9.65289ZM43.594 9.65289H25.4114C25.1398 9.65289 24.8793 9.54498 24.6872 9.3529C24.4951 9.16083 24.3872 8.90031 24.3872 8.62867V3.92266C24.3872 3.35664 24.8454 2.89844 25.4114 2.89844H43.5994C44.1654 2.89844 44.6236 3.35664 44.6236 3.92266V8.62328C44.6218 8.89578 44.5127 9.1566 44.32 9.3493C44.1273 9.54199 43.8665 9.65105 43.594 9.65289ZM65.8195 9.65289H47.6316C47.3599 9.65289 47.0994 9.54498 46.9073 9.3529C46.7153 9.16083 46.6073 8.90031 46.6073 8.62867V3.92266C46.6073 3.35664 47.0655 2.89844 47.6316 2.89844H65.8195C66.3855 2.89844 66.8438 3.35664 66.8438 3.92266V8.62328C66.8438 9.1893 66.3855 9.65289 65.8195 9.65289ZM21.3738 28.7141H3.18586C2.91422 28.7141 2.65371 28.6062 2.46163 28.4142C2.26955 28.2221 2.16164 27.9616 2.16164 27.6899V22.9893C2.16164 22.4233 2.61984 21.9651 3.18586 21.9651H21.3738C21.9398 21.9651 22.398 22.4233 22.398 22.9893V27.6899C22.398 27.9616 22.2901 28.2221 22.0981 28.4142C21.906 28.6062 21.6455 28.7141 21.3738 28.7141ZM43.594 28.7141H25.4114C25.1398 28.7141 24.8793 28.6062 24.6872 28.4142C24.4951 28.2221 24.3872 27.9616 24.3872 27.6899V22.9893C24.3872 22.4233 24.8454 21.9651 25.4114 21.9651H43.5994C44.1654 21.9651 44.6236 22.4233 44.6236 22.9893V27.6899C44.6182 28.2559 44.16 28.7141 43.594 28.7141ZM65.8195 28.7141H47.6316C47.3599 28.7141 47.0994 28.6062 46.9073 28.4142C46.7153 28.2221 46.6073 27.9616 46.6073 27.6899V22.9893C46.6073 22.4233 47.0655 21.9651 47.6316 21.9651H65.8195C66.3855 21.9651 66.8438 22.4233 66.8438 22.9893V27.6899C66.8438 27.9616 66.7358 28.2221 66.5438 28.4142C66.3517 28.6062 66.0912 28.7141 65.8195 28.7141ZM21.3738 47.7808H3.18586C2.91422 47.7808 2.65371 47.6729 2.46163 47.4808C2.26955 47.2887 2.16164 47.0282 2.16164 46.7566V42.0559C2.16164 41.4899 2.61984 41.0317 3.18586 41.0317H21.3738C21.9398 41.0317 22.398 41.4899 22.398 42.0559V46.7566C22.398 47.3172 21.9398 47.7808 21.3738 47.7808ZM43.594 47.7808H25.4114C25.1398 47.7808 24.8793 47.6729 24.6872 47.4808C24.4951 47.2887 24.3872 47.0282 24.3872 46.7566V42.0559C24.3872 41.4899 24.8454 41.0317 25.4114 41.0317H43.5994C44.1654 41.0317 44.6236 41.4899 44.6236 42.0559V46.7566C44.6208 47.0283 44.5112 47.2879 44.3186 47.4796C44.1259 47.6712 43.8657 47.7794 43.594 47.7808ZM65.8195 47.7808H47.6316C47.3599 47.7808 47.0994 47.6729 46.9073 47.4808C46.7153 47.2887 46.6073 47.0282 46.6073 46.7566V42.0559C46.6073 41.4899 47.0655 41.0317 47.6316 41.0317H65.8195C66.3855 41.0317 66.8438 41.4899 66.8438 42.0559V46.7566C66.8438 47.3172 66.3855 47.7808 65.8195 47.7808ZM21.3738 66.842H3.18586C2.91422 66.842 2.65371 66.7341 2.46163 66.542C2.26955 66.35 2.16164 66.0895 2.16164 65.8178V61.1172C2.16164 60.5512 2.61984 60.093 3.18586 60.093H21.3738C21.9398 60.093 22.398 60.5512 22.398 61.1172V65.8178C22.398 66.0895 22.2901 66.35 22.0981 66.542C21.906 66.7341 21.6455 66.842 21.3738 66.842ZM43.594 66.842H25.4114C25.1398 66.842 24.8793 66.7341 24.6872 66.542C24.4951 66.35 24.3872 66.0895 24.3872 65.8178V61.1172C24.3872 60.5512 24.8454 60.093 25.4114 60.093H43.5994C44.1654 60.093 44.6236 60.5512 44.6236 61.1172V65.8178C44.6182 66.3838 44.16 66.842 43.594 66.842ZM65.8195 66.842H47.6316C47.3599 66.842 47.0994 66.7341 46.9073 66.542C46.7153 66.35 46.6073 66.0895 46.6073 65.8178V61.1172C46.6073 60.5512 47.0655 60.093 47.6316 60.093H65.8195C66.3855 60.093 66.8438 60.5512 66.8438 61.1172V65.8178C66.8438 66.0895 66.7358 66.35 66.5438 66.542C66.3517 66.7341 66.0912 66.842 65.8195 66.842ZM10.5225 12.4291H2.15625V19.1835H10.5225C10.7941 19.1835 11.0547 19.0756 11.2467 18.8835C11.4388 18.6915 11.5467 18.4309 11.5467 18.1593V13.4587C11.5467 12.8873 11.0885 12.4291 10.5225 12.4291ZM32.5702 19.1835H14.3876C14.1159 19.1835 13.8554 19.0756 13.6633 18.8835C13.4713 18.6915 13.3634 18.4309 13.3634 18.1593V13.4587C13.3634 12.8927 13.8216 12.4345 14.3876 12.4345H32.5755C33.1416 12.4345 33.5998 12.8927 33.5998 13.4587V18.1593C33.5944 18.7253 33.1362 19.1835 32.5702 19.1835ZM54.6178 19.1835H36.4352C36.3007 19.1835 36.1675 19.157 36.0433 19.1056C35.919 19.0541 35.8061 18.9786 35.711 18.8835C35.6159 18.7884 35.5405 18.6755 35.489 18.5512C35.4375 18.427 35.411 18.2938 35.411 18.1593V13.4587C35.411 12.8927 35.8692 12.4345 36.4352 12.4345H54.6232C55.1892 12.4345 55.6474 12.8927 55.6474 13.4587V18.1593C55.642 18.7253 55.1838 19.1835 54.6178 19.1835ZM58.4829 12.4291C58.2113 12.4291 57.9507 12.537 57.7587 12.729C57.5666 12.9211 57.4587 13.1816 57.4587 13.4533V18.1539C57.4587 18.7199 57.9169 19.1781 58.4829 19.1781H66.8438V12.4291H58.4829ZM10.5225 31.4957H2.15625V38.2502H10.5225C10.7941 38.2502 11.0547 38.1423 11.2467 37.9502C11.4388 37.7581 11.5467 37.4976 11.5467 37.2259V32.5253C11.5467 31.9539 11.0885 31.4957 10.5225 31.4957ZM32.5702 38.2448H14.3876C14.1159 38.2448 13.8554 38.1369 13.6633 37.9448C13.4713 37.7527 13.3634 37.4922 13.3634 37.2205V32.5199C13.3634 31.9539 13.8216 31.4957 14.3876 31.4957H32.5755C33.1416 31.4957 33.5998 31.9539 33.5998 32.5199V37.2205C33.5944 37.7866 33.1362 38.2448 32.5702 38.2448ZM54.6178 38.2448H36.4352C36.3007 38.2448 36.1675 38.2183 36.0433 38.1668C35.919 38.1153 35.8061 38.0399 35.711 37.9448C35.6159 37.8497 35.5405 37.7368 35.489 37.6125C35.4375 37.4882 35.411 37.355 35.411 37.2205V32.5199C35.411 31.9539 35.8692 31.4957 36.4352 31.4957H54.6232C55.1892 31.4957 55.6474 31.9539 55.6474 32.5199V37.2205C55.642 37.7866 55.1838 38.2448 54.6178 38.2448ZM58.4829 31.4957C58.2113 31.4957 57.9507 31.6036 57.7587 31.7957C57.5666 31.9878 57.4587 32.2483 57.4587 32.5199V37.2205C57.4587 37.7866 57.9169 38.2448 58.4829 38.2448H66.8438V31.4957H58.4829ZM10.5225 50.557H2.15625V57.3114H10.5225C10.657 57.3114 10.7902 57.2849 10.9145 57.2334C11.0387 57.182 11.1516 57.1065 11.2467 57.0114C11.3418 56.9163 11.4173 56.8034 11.4688 56.6791C11.5202 56.5549 11.5467 56.4217 11.5467 56.2872V51.5866C11.5467 51.0152 11.0885 50.557 10.5225 50.557ZM32.5702 57.3114H14.3876C14.2531 57.3114 14.1199 57.2849 13.9956 57.2334C13.8714 57.182 13.7585 57.1065 13.6633 57.0114C13.5682 56.9163 13.4928 56.8034 13.4413 56.6791C13.3899 56.5549 13.3634 56.4217 13.3634 56.2872V51.5866C13.3634 51.0205 13.8216 50.5623 14.3876 50.5623H32.5755C33.1416 50.5623 33.5998 51.0205 33.5998 51.5866V56.2872C33.5944 56.8532 33.1362 57.3114 32.5702 57.3114ZM54.6178 57.3114H36.4352C36.3007 57.3114 36.1675 57.2849 36.0433 57.2334C35.919 57.182 35.8061 57.1065 35.711 57.0114C35.6159 56.9163 35.5405 56.8034 35.489 56.6791C35.4375 56.5549 35.411 56.4217 35.411 56.2872V51.5866C35.411 51.0205 35.8692 50.5623 36.4352 50.5623H54.6232C55.1892 50.5623 55.6474 51.0205 55.6474 51.5866V56.2872C55.642 56.8532 55.1838 57.3114 54.6178 57.3114ZM58.4829 50.557C58.2113 50.557 57.9507 50.6649 57.7587 50.8569C57.5666 51.049 57.4587 51.3095 57.4587 51.5812V56.2818C57.4587 56.8478 57.9169 57.306 58.4829 57.306H66.8438V50.557H58.4829Z" fill="#751C00"/>
<path d="M21.3762 8.9107H3.18828C2.91664 8.9107 2.65613 8.80279 2.46405 8.61072C2.27197 8.41864 2.16406 8.15812 2.16406 7.88648V3.18047C2.16406 2.61445 2.62227 2.15625 3.18828 2.15625H21.3762C21.9423 2.15625 22.4005 2.61445 22.4005 3.18047V7.88109C22.4005 8.44711 21.9423 8.9107 21.3762 8.9107Z" fill="#E04E2C"/>
<path d="M43.5974 8.9107H25.4148C25.1432 8.9107 24.8827 8.80279 24.6906 8.61072C24.4985 8.41864 24.3906 8.15812 24.3906 7.88648V3.18047C24.3906 2.61445 24.8488 2.15625 25.4148 2.15625H43.6028C44.1688 2.15625 44.627 2.61445 44.627 3.18047V7.88109C44.6252 8.1536 44.5161 8.41442 44.3234 8.60711C44.1307 8.7998 43.8699 8.90887 43.5974 8.9107Z" fill="#BF360C"/>
<path d="M65.822 8.9107H47.634C47.3623 8.9107 47.1018 8.80279 46.9097 8.61072C46.7177 8.41864 46.6098 8.15812 46.6098 7.88648V3.18047C46.6098 2.61445 47.068 2.15625 47.634 2.15625H65.822C66.388 2.15625 66.8462 2.61445 66.8462 3.18047V7.88109C66.8462 8.44711 66.388 8.9107 65.822 8.9107ZM21.3762 27.972H3.18828C2.91664 27.972 2.65613 27.864 2.46405 27.672C2.27197 27.4799 2.16406 27.2194 2.16406 26.9477V22.2471C2.16406 21.6811 2.62227 21.2229 3.18828 21.2229H21.3762C21.9423 21.2229 22.4005 21.6811 22.4005 22.2471V26.9477C22.4005 27.2194 22.2926 27.4799 22.1005 27.672C21.9084 27.864 21.6479 27.972 21.3762 27.972ZM43.5964 27.972H25.4138C25.1422 27.972 24.8817 27.864 24.6896 27.672C24.4975 27.4799 24.3896 27.2194 24.3896 26.9477V22.2471C24.3896 21.6811 24.8478 21.2229 25.4138 21.2229H43.6018C44.1678 21.2229 44.626 21.6811 44.626 22.2471V26.9477C44.6206 27.5138 44.1624 27.972 43.5964 27.972Z" fill="#E04E2C"/>
<path d="M65.8216 27.9737H47.6336C47.362 27.9737 47.1014 27.8658 46.9094 27.6737C46.7173 27.4816 46.6094 27.2211 46.6094 26.9495V22.2488C46.6094 21.6828 47.0676 21.2246 47.6336 21.2246H65.8216C66.3876 21.2246 66.8458 21.6828 66.8458 22.2488V26.9495C66.8458 27.2211 66.7379 27.4816 66.5458 27.6737C66.3537 27.8658 66.0932 27.9737 65.8216 27.9737Z" fill="#BF360C"/>
<path d="M21.3762 47.0362H3.18828C2.91664 47.0362 2.65613 46.9283 2.46405 46.7362C2.27197 46.5441 2.16406 46.2836 2.16406 46.012V41.3113C2.16406 40.7453 2.62227 40.2871 3.18828 40.2871H21.3762C21.9423 40.2871 22.4005 40.7453 22.4005 41.3113V46.012C22.4005 46.5726 21.9423 47.0362 21.3762 47.0362Z" fill="#E04E2C"/>
<path d="M43.5974 47.0362H25.4148C25.1432 47.0362 24.8827 46.9283 24.6906 46.7362C24.4985 46.5441 24.3906 46.2836 24.3906 46.012V41.3113C24.3906 40.7453 24.8488 40.2871 25.4148 40.2871H43.6028C44.1688 40.2871 44.627 40.7453 44.627 41.3113V46.012C44.6242 46.2836 44.5147 46.5433 44.322 46.735C44.1294 46.9266 43.8691 47.0348 43.5974 47.0362Z" fill="#BF360C"/>
<path d="M65.822 47.0362H47.634C47.3623 47.0362 47.1018 46.9283 46.9097 46.7362C46.7177 46.5441 46.6098 46.2836 46.6098 46.012V41.3113C46.6098 40.7453 47.068 40.2871 47.634 40.2871H65.822C66.388 40.2871 66.8462 40.7453 66.8462 41.3113V46.012C66.8462 46.5726 66.388 47.0362 65.822 47.0362ZM21.3762 66.0974H3.18828C3.05378 66.0974 2.92059 66.0709 2.79633 66.0195C2.67207 65.968 2.55916 65.8925 2.46405 65.7974C2.36894 65.7023 2.2935 65.5894 2.24203 65.4652C2.19055 65.3409 2.16406 65.2077 2.16406 65.0732V60.3726C2.16406 59.8066 2.62227 59.3484 3.18828 59.3484H21.3762C21.9423 59.3484 22.4005 59.8066 22.4005 60.3726V65.0732C22.4005 65.2077 22.374 65.3409 22.3225 65.4652C22.271 65.5894 22.1956 65.7023 22.1005 65.7974C22.0054 65.8925 21.8925 65.968 21.7682 66.0195C21.6439 66.0709 21.5108 66.0974 21.3762 66.0974ZM43.5964 66.0974H25.4138C25.2793 66.0974 25.1461 66.0709 25.0219 66.0195C24.8976 65.968 24.7847 65.8925 24.6896 65.7974C24.5945 65.7023 24.519 65.5894 24.4676 65.4652C24.4161 65.3409 24.3896 65.2077 24.3896 65.0732V60.3726C24.3896 59.8066 24.8478 59.3484 25.4138 59.3484H43.6018C44.1678 59.3484 44.626 59.8066 44.626 60.3726V65.0732C44.6206 65.6392 44.1624 66.0974 43.5964 66.0974Z" fill="#E04E2C"/>
<path d="M65.8195 66.1005H47.6316C47.4971 66.1005 47.3639 66.074 47.2396 66.0225C47.1153 65.971 47.0024 65.8956 46.9073 65.8005C46.8122 65.7054 46.7368 65.5925 46.6853 65.4682C46.6338 65.3439 46.6073 65.2108 46.6073 65.0763V60.3756C46.6073 59.8096 47.0655 59.3514 47.6316 59.3514H65.8195C66.3855 59.3514 66.8438 59.8096 66.8438 60.3756V65.0763C66.8438 65.2108 66.8173 65.3439 66.7658 65.4682C66.7143 65.5925 66.6389 65.7054 66.5438 65.8005C66.4487 65.8956 66.3357 65.971 66.2115 66.0225C66.0872 66.074 65.954 66.1005 65.8195 66.1005ZM10.5225 11.6875H2.15625V18.442H10.5225C10.7941 18.442 11.0547 18.334 11.2467 18.142C11.4388 17.9499 11.5467 17.6894 11.5467 17.4177V12.7171C11.5467 12.1457 11.0885 11.6875 10.5225 11.6875Z" fill="#BF360C"/>
<path d="M32.5701 18.4424H14.3875C14.1159 18.4424 13.8553 18.3345 13.6633 18.1424C13.4712 17.9504 13.3633 17.6898 13.3633 17.4182V12.7176C13.3633 12.1516 13.8215 11.6934 14.3875 11.6934H32.5755C33.1415 11.6934 33.5997 12.1516 33.5997 12.7176V17.4182C33.5943 17.9842 33.1361 18.4424 32.5701 18.4424Z" fill="#E04E2C"/>
<path d="M54.6209 18.4424H36.4383C36.3038 18.4424 36.1706 18.4159 36.0463 18.3645C35.9221 18.313 35.8092 18.2375 35.714 18.1424C35.6189 18.0473 35.5435 17.9344 35.492 17.8102C35.4406 17.6859 35.4141 17.5527 35.4141 17.4182V12.7176C35.4141 12.1516 35.8723 11.6934 36.4383 11.6934H54.6262C55.1923 11.6934 55.6505 12.1516 55.6505 12.7176V17.4182C55.6451 17.9842 55.1869 18.4424 54.6209 18.4424Z" fill="#FF7043"/>
<path d="M58.4829 11.6875C58.2113 11.6875 57.9507 11.7954 57.7587 11.9875C57.5666 12.1796 57.4587 12.4401 57.4587 12.7117V17.4123C57.4587 17.9784 57.9169 18.4366 58.4829 18.4366H66.8438V11.6875H58.4829ZM10.5225 30.7541H2.15625V37.5086H10.5225C10.657 37.5086 10.7902 37.4821 10.9145 37.4306C11.0387 37.3792 11.1516 37.3037 11.2467 37.2086C11.3418 37.1135 11.4173 37.0006 11.4688 36.8763C11.5202 36.7521 11.5467 36.6189 11.5467 36.4844V31.7837C11.5467 31.2123 11.0885 30.7541 10.5225 30.7541Z" fill="#E04E2C"/>
<path d="M32.5701 37.503H14.3875C14.1159 37.503 13.8553 37.3951 13.6633 37.203C13.4712 37.0109 13.3633 36.7504 13.3633 36.4787V31.7781C13.3633 31.2121 13.8215 30.7539 14.3875 30.7539H32.5755C33.1415 30.7539 33.5997 31.2121 33.5997 31.7781V36.4787C33.5943 37.0448 33.1361 37.503 32.5701 37.503Z" fill="#FF7043"/>
<path d="M54.6209 37.503H36.4383C36.3038 37.503 36.1706 37.4765 36.0463 37.425C35.9221 37.3735 35.8092 37.2981 35.714 37.203C35.6189 37.1079 35.5435 36.995 35.492 36.8707C35.4406 36.7464 35.4141 36.6133 35.4141 36.4787V31.7781C35.4141 31.2121 35.8723 30.7539 36.4383 30.7539H54.6262C55.1923 30.7539 55.6505 31.2121 55.6505 31.7781V36.4787C55.6451 37.0448 55.1869 37.503 54.6209 37.503ZM58.4859 30.7539C58.2143 30.7539 57.9538 30.8618 57.7617 31.0539C57.5696 31.246 57.4617 31.5065 57.4617 31.7781V36.4787C57.4617 37.0448 57.9199 37.503 58.4859 37.503H66.8468V30.7539H58.4859Z" fill="#E04E2C"/>
<path d="M10.5225 49.8145H2.15625V56.5689H10.5225C10.657 56.5689 10.7902 56.5424 10.9145 56.4909C11.0387 56.4395 11.1516 56.364 11.2467 56.2689C11.3418 56.1738 11.4173 56.0609 11.4688 55.9366C11.5202 55.8124 11.5467 55.6792 11.5467 55.5447V50.8441C11.5467 50.2727 11.0885 49.8145 10.5225 49.8145Z" fill="#BF360C"/>
<path d="M32.5701 56.5713H14.3875C14.253 56.5713 14.1198 56.5448 13.9955 56.4934C13.8713 56.4419 13.7584 56.3664 13.6633 56.2713C13.5682 56.1762 13.4927 56.0633 13.4412 55.9391C13.3898 55.8148 13.3633 55.6816 13.3633 55.5471V50.8465C13.3633 50.2805 13.8215 49.8223 14.3875 49.8223H32.5755C33.1415 49.8223 33.5997 50.2805 33.5997 50.8465V55.5471C33.5943 56.1131 33.1361 56.5713 32.5701 56.5713ZM54.6177 56.5713H36.4352C36.3007 56.5713 36.1675 56.5448 36.0432 56.4934C35.9189 56.4419 35.806 56.3664 35.7109 56.2713C35.6158 56.1762 35.5404 56.0633 35.4889 55.9391C35.4374 55.8148 35.4109 55.6816 35.4109 55.5471V50.8465C35.4109 50.2805 35.8691 49.8223 36.4352 49.8223H54.6231C55.1891 49.8223 55.6473 50.2805 55.6473 50.8465V55.5471C55.642 56.1131 55.1838 56.5713 54.6177 56.5713Z" fill="#E04E2C"/>
<path d="M58.4813 49.8145C58.2096 49.8145 57.9491 49.9224 57.757 50.1144C57.5649 50.3065 57.457 50.567 57.457 50.8387V55.5393C57.457 56.1053 57.9152 56.5635 58.4813 56.5635H66.8421V49.8145H58.4813Z" fill="#FF7043"/>
</svg>
