<svg width="29" height="42" viewBox="0 0 29 42" fill="none" xmlns="http://www.w3.org/2000/svg">
<path d="M11.8867 13.9038C11.8867 13.9038 17.8215 12.7127 17.2979 7.88502C16.4279 -0.138271 16.3547 1.06391 16.3547 1.06391L12.8023 1.72489C12.8023 1.72489 14.8499 10.6212 11.8867 13.9038Z" fill="#9BFFB7"/>
<path d="M13.9144 1.02344C8.67993 1.02344 4.4375 5.92903 4.4375 11.9805V22.7053H23.3913" fill="#00FF47"/>
<path d="M8.95898 25.5391H11.529V39.9987H8.95898V25.5391ZM18.2752 25.5391H20.8452V36.3234H18.2752V25.5391Z" fill="#D0CFCE"/>
<path d="M13.9141 1.36784C13.9141 1.36784 23.7591 1.72712 24.1324 10.448C24.7537 24.9404 24.1754 22.8292 24.1754 22.8292L18.1835 22.7048C18.1835 22.7048 19.1074 6.31663 13.9141 1.36719V1.36784Z" fill="#47FF7B"/>
<path d="M19.5605 23.1133H27.1633V25.1309H19.5605V23.1133Z" fill="#47FF7B"/>
<path d="M2.2168 23.1133H19.563V25.1309H2.2168V23.1133Z" fill="#00FF47"/>
<path d="M13.9132 1.02344C8.67879 1.02344 4.43636 5.92903 4.43636 11.9805V22.7053H23.3901M14.3681 1.02344C19.6019 1.02344 23.845 5.92903 23.845 11.9805V16.8155M8.9602 25.5409H11.5302V40.0005H8.9602V25.5409ZM18.2765 25.5409H20.8465V36.3253H18.2765V25.5409ZM2 25.5409H27.7V22.7053H2V25.5409Z" stroke="black" stroke-width="2.01573" stroke-miterlimit="10" stroke-linecap="round" stroke-linejoin="round"/>
</svg>
