<svg width="28" height="41" viewBox="0 0 28 41" fill="none" xmlns="http://www.w3.org/2000/svg">
<path d="M10.8867 13.9037C10.8867 13.9037 16.8215 12.7127 16.2979 7.88499C15.4279 -0.138266 15.3547 1.06391 15.3547 1.06391L11.8023 1.72488C11.8023 1.72488 13.8499 10.6211 10.8867 13.9037Z" fill="#FFDF8E"/>
<path d="M12.9124 1.02344C7.67797 1.02344 3.43555 5.92901 3.43555 11.9805V22.7052H22.3893" fill="#FFCC4D"/>
<path d="M7.96094 25.541H10.5309V40.0006H7.96094V25.541ZM17.2772 25.541H19.8472V36.3253H17.2772V25.541Z" fill="#D0CFCE"/>
<path d="M12.9141 1.36784C12.9141 1.36784 22.7591 1.72712 23.1324 10.448C23.7537 24.9403 23.1754 22.8291 23.1754 22.8291L17.1835 22.7047C17.1835 22.7047 18.1074 6.31661 12.9141 1.36719V1.36784Z" fill="#FFD670"/>
<path d="M18.5625 23.1152H26.1652V25.1328H18.5625V23.1152Z" fill="#FFD670"/>
<path d="M1.21484 23.1152H18.5611V25.1328H1.21484V23.1152Z" fill="#FFCC4D"/>
<path d="M12.9132 1.02344C7.67879 1.02344 3.43636 5.92901 3.43636 11.9805V22.7052H22.3901M13.3681 1.02344C18.6019 1.02344 22.845 5.92901 22.845 11.9805V16.8154M7.9602 25.5408H10.5302V40.0004H7.9602V25.5408ZM17.2765 25.5408H19.8465V36.3251H17.2765V25.5408ZM1 25.5408H26.7V22.7052H1V25.5408Z" stroke="black" stroke-width="1.57731" stroke-miterlimit="10" stroke-linecap="round" stroke-linejoin="round"/>
</svg>
