<svg width="72" height="72" viewBox="0 0 72 72" fill="none" xmlns="http://www.w3.org/2000/svg">
<g id="openmoji:wire">
<path id="Vector" d="M16 36H11M61 36H56" stroke="#E27022" stroke-width="2" stroke-miterlimit="10" stroke-linecap="round" stroke-linejoin="round"/>
<path id="Vector_2" d="M16 35.9395H56V39.9995H16V35.9395Z" fill="#D22F27"/>
<path id="Vector_3" d="M16 32H56V36H16V32Z" fill="#EA5A47"/>
<path id="Vector_4" d="M16 36H11M61 36H56M16 32H56V40H16V32Z" stroke="black" stroke-width="2" stroke-miterlimit="10" stroke-linecap="round" stroke-linejoin="round"/>
<path id="Vector_5" d="M14.9992 37.0492H10.9992C10.7207 37.0492 10.4537 36.9386 10.2568 36.7417C10.0598 36.5448 9.94922 36.2777 9.94922 35.9992C9.94922 35.7207 10.0598 35.4537 10.2568 35.2568C10.4537 35.0598 10.7207 34.9492 10.9992 34.9492H14.9992M56.9992 34.9492H60.9992C61.2777 34.9492 61.5448 35.0598 61.7417 35.2568C61.9386 35.4537 62.0492 35.7207 62.0492 35.9992C62.0492 36.2777 61.9386 36.5448 61.7417 36.7417C61.5448 36.9386 61.2777 37.0492 60.9992 37.0492H56.9992" fill="#E27022"/>
</g>
</svg>
